<?xml version="1.0" encoding="utf-8"?>
<!-- Generator: Adobe Illustrator 24.0.2, SVG Export Plug-In . SVG Version: 6.00 Build 0)  -->
<svg version="1.1" id="Calque_1" xmlns="http://www.w3.org/2000/svg" xmlns:xlink="http://www.w3.org/1999/xlink" x="0px" y="0px"
	 viewBox="0 0 566.9 566.9" style="enable-background:new 0 0 566.9 566.9;" xml:space="preserve">
<style type="text/css">
	.st0{fill:#FFFFFF;}
	.st1{stroke:#FFFFFF;stroke-width:3;stroke-linecap:round;stroke-linejoin:round;stroke-miterlimit:10;}
</style>
<g>
	<g>
		<path d="M363.4,547.6c-66.7,0-120.9-25.3-120.9-56.5c0-2,0.2-4,0.7-6.1c0-0.1,0-0.2,0-0.3V77.3h241.1v413.8
			C484.3,522.3,430.1,547.6,363.4,547.6z"/>
		<path class="st0" d="M482.8,78.8v412.3c0,14.3-12.1,27.9-34.1,38.3c-22.7,10.8-53,16.7-85.3,16.7s-62.6-5.9-85.3-16.7
			c-22-10.4-34.1-24-34.1-38.3c0-1.9,0.2-3.8,0.7-5.7c0.1-0.2,0.1-0.5,0.1-0.7V78.8H482.8 M485.8,75.8H241.7v408.9
			c-0.5,2.1-0.8,4.3-0.8,6.4c0,32,54.8,58,122.4,58s122.4-26,122.4-58V75.8L485.8,75.8z"/>
	</g>
	<g>
		<ellipse cx="363.4" cy="75.8" rx="120.9" ry="56.5"/>
		<path class="st0" d="M363.4,20.9c32.3,0,62.6,5.9,85.3,16.7c22,10.4,34.1,24,34.1,38.3s-12.1,27.9-34.1,38.3
			c-22.7,10.8-53,16.7-85.3,16.7s-62.6-5.9-85.3-16.7c-22-10.4-34.1-24-34.1-38.3s12.1-27.9,34.1-38.3
			C300.8,26.8,331.1,20.9,363.4,20.9 M363.4,17.9c-67.6,0-122.4,26-122.4,58s54.8,58,122.4,58s122.4-26,122.4-58
			S431,17.9,363.4,17.9L363.4,17.9z"/>
	</g>
	<g>
		<path d="M373.8,87.2c-4.9,0-8.9-4-8.9-8.9V64.7c0-4.9,4-8.9,8.9-8.9h76.5c4.9,0,8.9,4,8.9,8.9v13.5c0,4.9-4,8.9-8.9,8.9H373.8z"/>
		<path class="st0" d="M450.4,57.3c4.1,0,7.4,3.3,7.4,7.4v13.5c0,4.1-3.3,7.4-7.4,7.4h-76.5c-4.1,0-7.4-3.3-7.4-7.4V64.7
			c0-4.1,3.3-7.4,7.4-7.4H450.4 M450.4,54.3h-76.5c-5.7,0-10.4,4.7-10.4,10.4v13.5c0,5.7,4.7,10.4,10.4,10.4h76.5
			c5.7,0,10.4-4.7,10.4-10.4V64.7C460.8,59,456.1,54.3,450.4,54.3L450.4,54.3z"/>
	</g>
</g>
<g>
	<polyline class="st1" points="185.1,17.9 142.8,17.9 142.8,549.1 185.1,549.1 	"/>
	<line class="st1" x1="142.8" y1="54.3" x2="185.1" y2="54.3"/>
	<line class="st1" x1="142.8" y1="147.4" x2="185.1" y2="147.4"/>
	<line class="st1" x1="142.8" y1="308.6" x2="185.1" y2="308.6"/>
</g>
<g>
	<path class="st0" d="M81.1,56.8l13.7-39h8.7l13.7,39h-7.5l-3.2-9.6H91.8l-3.2,9.6H81.1z M104.6,41.5l-5.3-15.7H99l-5.3,15.7H104.6z
		"/>
	<path class="st0" d="M83.6,87.1h14.9c8.5,0,12.6,4.3,12.6,10.1c0,4.7-3,7.4-6.8,8.3v0.4c4.2,0.2,8.3,3.7,8.3,9.6
		c0,6.1-4.4,10.6-13.3,10.6H83.6V87.1z M97.7,103.7c3.7,0,6.5-2.1,6.5-5.6c0-3-2.2-5.2-6.3-5.2h-7.1v10.8H97.7z M98.3,120.2
		c5.1,0,7.3-2.2,7.3-5.3c0-3.5-2.7-6.2-7.1-6.2h-7.8v11.4H98.3z"/>
	<path class="st0" d="M109.9,221.6c-0.8-4.7-4.5-7.4-9.3-7.4c-6.4,0-10.9,4.9-10.9,13.7c0,9,4.5,13.7,10.9,13.7
		c4.7,0,8.4-2.6,9.3-7.1l7.1,0c-1.1,7.4-7.2,13.4-16.5,13.4c-10.3,0-17.9-7.4-17.9-20c0-12.6,7.7-20,17.9-20c8.6,0,15.3,5,16.5,13.7
		H109.9z"/>
	<path class="st0" d="M83.6,451.8v-39h13.5c11.6,0,18.7,7.3,18.7,19.5c0,12.2-7,19.5-18.9,19.5H83.6z M96.5,445.7
		c8.1,0,12.3-4.5,12.3-13.4c0-8.9-4.1-13.3-12.1-13.3h-6v26.8H96.5z"/>
</g>
</svg>
