<?xml version="1.0" encoding="utf-8"?>
<!-- Generator: Adobe Illustrator 24.0.2, SVG Export Plug-In . SVG Version: 6.00 Build 0)  -->
<svg version="1.1" id="Calque_1" xmlns="http://www.w3.org/2000/svg" xmlns:xlink="http://www.w3.org/1999/xlink" x="0px" y="0px"
	 viewBox="0 0 566.9 226.9" style="enable-background:new 0 0 566.9 226.9;" xml:space="preserve">
<g>
	<path d="M145.5,107H97c-0.1,2.1-0.2,4.2-0.2,6.5c0,2.2,0.1,4.3,0.2,6.4h43.1l-6.2,13.3H99c4.9,19.6,17.5,29.6,33.3,29.6
		c11.3,0,20.4-5.1,26.9-10.5l7.8,16.2c-9.1,8.2-21.5,12.5-34.7,12.5c-26.8,0-47.1-17.6-53.2-47.7h-18l4.8-13.3h11.5
		c-0.1-2.1-0.2-4.2-0.2-6.4c0-2.2,0.1-4.4,0.2-6.5H61.1l4.8-13.2h13.2c6.1-30.1,26.4-47.9,53.2-47.9c13.7,0,25.6,4.7,35,13
		l-7.6,16.2c-7.2-6.2-16.2-11.1-27.4-11.1c-15.9,0-28.4,10-33.3,29.7h52.6L145.5,107z"/>
	<path d="M314.8,107h-48.5c-0.1,2.1-0.2,4.2-0.2,6.5c0,2.2,0.1,4.3,0.2,6.4h43.1l-6.2,13.3h-34.9c4.9,19.6,17.5,29.6,33.3,29.6
		c11.3,0,20.4-5.1,26.9-10.5l7.8,16.2c-9.1,8.2-21.5,12.5-34.7,12.5c-26.8,0-47.1-17.6-53.2-47.7h-18l4.8-13.3h11.5
		c-0.1-2.1-0.2-4.2-0.2-6.4c0-2.2,0.1-4.4,0.2-6.5h-16.3l4.8-13.2h13.2c6.1-30.1,26.4-47.9,53.2-47.9c13.7,0,25.6,4.7,35,13
		L329,75.2c-7.2-6.2-16.2-11.1-27.4-11.1c-15.9,0-28.4,10-33.3,29.7h52.6L314.8,107z"/>
	<path d="M484.1,106h-48.5c-0.1,2.1-0.2,4.2-0.2,6.5c0,2.2,0.1,4.3,0.2,6.4h43.1l-6.2,13.3h-34.9c4.9,19.6,17.5,29.6,33.3,29.6
		c11.3,0,20.4-5.1,26.9-10.5l7.8,16.2c-9.1,8.2-21.5,12.5-34.7,12.5c-26.8,0-47.1-17.6-53.2-47.7h-18l4.8-13.3H416
		c-0.1-2.1-0.2-4.2-0.2-6.4c0-2.2,0.1-4.4,0.2-6.5h-16.3l4.8-13.2h13.2c6.1-30.1,26.4-47.9,53.2-47.9c13.7,0,25.6,4.7,35,13
		l-7.6,16.2c-7.2-6.2-16.2-11.1-27.4-11.1c-15.9,0-28.4,10-33.3,29.7h52.6L484.1,106z"/>
</g>
</svg>
